# xmcd CD database file
#
# Track frame offsets:
#	150
#	20594
#	38546
#	61103
#	82246
#	109303
#	132628
#	167428
#	184994
#	208611
#	229545
#	254285
#
# Disc length: 3768 seconds
#
# Revision: 1
# Processed by: cddbd v1.5.1PL2 Copyright (c) Steve Scherf et al.
# Submitted via: CDex 1.51
#
DISCID=a10eb60c
DTITLE=Die kleine Kapelle - Vol. 4 - Der Liebe Wellenschlag
DYEAR=1900
DGENRE=Salsa
TTITLE0=Gabi
TTITLE1=Nur nicht
TTITLE2=De rien
TTITLE3=Volare
TTITLE4=Einmal nur
TTITLE5=Ostkreuzmanne
TTITLE6=Pacemu
TTITLE7=Rucola
TTITLE8=Manicero
TTITLE9=Manbo Jamba
TTITLE10=Schwarze augen
TTITLE11=Marina
EXTD=
EXTT0=
EXTT1=
EXTT2=
EXTT3=
EXTT4=
EXTT5=
EXTT6=
EXTT7=
EXTT8=
EXTT9=
EXTT10=
EXTT11=
PLAYORDER=
